<svg version="1.1" id="Layer_1" xmlns="http://www.w3.org/2000/svg" xmlns:xlink="http://www.w3.org/1999/xlink" viewBox="0 0 64 64" xml:space="preserve" width="200px" height="200px">
<g>
	<path style="fill:#F9EBB2;" d="M32,62c1.1,0,2-0.9,2-2V55h-4v5C30,61.1,30.9,62,32,62z"/>
	<path style="fill:#3A364D;" d="M32,62c-1.7,0-3-1.3-3-3v-4h6v4C35,60.7,33.7,62,32,62z M31,56v3c0,0.6,0.4,1,1,1s1-0.4,1-1v-3H31z"/>
	<rect x="24" y="53" style="fill:#3A364D;" width="16" height="2"/>
	<path style="fill:#EBF0F3;" d="M40,51H24c-1.1,0-2-0.9-2-2h20C42,50.1,41.1,51,40,51z"/>
	<path style="fill:#3A364D;" d="M40,52H24c-1.7,0-3-1.3-3-3h22C43,50.7,41.7,52,40,52z M22,50c0,0.6,0.4,1,1,1h16c0.6,0,1-0.4,1-1H22z"/>
	<path style="fill:#EBF0F3;" d="M24,51h16v2H24V51z"/>
	<path style="fill:#3A364D;" d="M40,54H24c-1.1,0-2-0.9-2-2h20C42,53.1,41.1,54,40,54z M24,53h16v-1H24V53z"/>
	<path style="fill:#EBF0F3;" d="M34.2,45H29.8C27.2,45,25,42.8,25,40.2v-1.4c0-2.2-0.8-4.2-2.2-5.8C20.4,30.6,20,28.8,20,27c0-6.6,5.4-12,12-12 s12,5.4,12,12c0,1.8-0.4,3.6-1.2,5.2c-1.4,1.6-2.2,3.6-2.2,5.8v1.4C39,42.8,36.8,45,34.2,45z"/>
	<path style="fill:#3A364D;" d="M32,16c5.5,0,10,4.5,10,10c0,1.6-0.4,3.1-1.1,4.5c-1.6,1.8-2.5,4-2.5,6.3v1.4c0,2.2-1.8,4-4,4h-4.3 c-2.2,0-4-1.8-4-4v-1.4c0-2.3-0.9-4.5-2.5-6.3C22.4,29.1,22,27.6,22,26C22,20.5,26.5,16,32,16 M32,14c-6.6,0-12,5.4-12,12 c0,2,0.5,3.9,1.5,5.5c1.3,1.5,2,3.4,2,5.3v1.4C23.5,41.9,26.1,45,29.8,45h4.3c3.6,0,6.4-2.9,6.4-6.4v-1.4c0-1.9,0.7-3.7,2-5.3 c1-1.6,1.5-3.5,1.5-5.5C44,19.4,38.6,14,32,14L32,14z"/>
</g>
</svg>
